<svg id="Layer_1" data-name="Layer 1" xmlns="http://www.w3.org/2000/svg" viewBox="0 0 315.68 315.68"><defs><style>.cls-1{fill:#fff;}.cls-2{fill:#0057a2;}.cls-3{fill:#78c044;}.cls-4{fill:#6ecef0;}</style></defs><circle class="cls-1" cx="157.84" cy="157.84" r="157.84"/><circle class="cls-2" cx="157.84" cy="157.84" r="149.18"/><path class="cls-3" d="M55,138a17,17,0,0,1-2,5.69A13.94,13.94,0,0,1,49.18,148,13.6,13.6,0,0,1,44,150.27a17.19,17.19,0,0,1-12.28-2.17,14.76,14.76,0,0,1-4.33-4.1,14.41,14.41,0,0,1-2.29-5.48,17.14,17.14,0,0,1,0-6.35A15.6,15.6,0,0,1,26.35,128a18.63,18.63,0,0,1,1.89-3.07l-.89-1.44.31-1.75,10.44,1.65-.31,1.77a18.44,18.44,0,0,0-7.64,2.38A6.9,6.9,0,0,0,27,132.24a6.38,6.38,0,0,0,2.33,6.33q3,2.55,9,3.61a22.35,22.35,0,0,0,5.93.34,11.92,11.92,0,0,0,4.18-1.07,7.26,7.26,0,0,0,2.73-2.36,8.46,8.46,0,0,0,1.33-3.39,8.63,8.63,0,0,0-.65-5.28,14.42,14.42,0,0,0-3.92-4.82l1.35-1.54a17.31,17.31,0,0,1,2.82,2.52,11.92,11.92,0,0,1,2,3,13.52,13.52,0,0,1,1.11,3.81A14.83,14.83,0,0,1,55,138Z"/><path class="cls-3" d="M61.87,113.52l-4.67,12L55.81,125c.1-.34.2-.68.28-1a3.88,3.88,0,0,0,.14-.9A1.63,1.63,0,0,0,55.9,122a2.64,2.64,0,0,0-1-.66l-21.07-8.22a3.37,3.37,0,0,0-1.46-.23,2.43,2.43,0,0,0-1.25.43,5,5,0,0,0-.92,1,6.66,6.66,0,0,0-.8,1.26L28,115l3.24-9.78.41-.17,25.43,9.91a2.42,2.42,0,0,0,1.24.2,1.78,1.78,0,0,0,1-.54c.21-.21.41-.44.61-.68a5.87,5.87,0,0,0,.58-.92Z"/><path class="cls-3" d="M69,91.37A12.36,12.36,0,0,1,70,94a10.31,10.31,0,0,1,.32,2.88,12,12,0,0,1-.42,3,11.6,11.6,0,0,1-1.32,3,14.46,14.46,0,0,1-3.42,4,10.14,10.14,0,0,1-3.85,1.91,9.28,9.28,0,0,1-4,.07,12.79,12.79,0,0,1-4-1.61,10.78,10.78,0,0,1-3-2.71,11,11,0,0,1-1.79-3.62,10.67,10.67,0,0,1-.2-4.21,12,12,0,0,1,1.67-4.51,13.56,13.56,0,0,1,3-3.66,8.4,8.4,0,0,1,3.21-1.62,7,7,0,0,1,3.23,0,10.28,10.28,0,0,1,3.11,1.26l1.14.68-7.12,11.82q3.59,2.16,6.28,1.9c1.81-.16,3.31-1.25,4.52-3.26a6,6,0,0,0,.88-3.49,9.79,9.79,0,0,0-.93-3.62ZM58.35,94.05c-.7-.42-1.44-.82-2.21-1.19a8.74,8.74,0,0,0-2-.72,3.34,3.34,0,0,0-1.74.06,2.41,2.41,0,0,0-1.2,1,2.84,2.84,0,0,0,.07,3A10.77,10.77,0,0,0,55,99.7Z"/><path class="cls-3" d="M75.81,63.68a4.7,4.7,0,0,0-.72,1.78,4,4,0,0,0,.27,2.22c.79,2.06,1.62,4.11,2.46,6.16s1.66,4,2.43,6c.24.59.56,1.32,1,2.18s.81,1.64,1.19,2.31l-2.57,2.74q-5.58-2-9.34-3.26t-8-2.71a3.4,3.4,0,0,0-2,0,4.78,4.78,0,0,0-1.76.88l-1.08-1,8.6-9.17,1.08,1a6.66,6.66,0,0,0-.89,1.4c-.29.59-.32,1-.1,1.19a1.14,1.14,0,0,0,.32.19l.54.23q1.58.58,4.61,1.61l6.39,2.16c-.62-1.5-1.23-3-1.84-4.39s-1.42-3.22-2.4-5.39a3.41,3.41,0,0,0-.44-.71l-.27-.3a.86.86,0,0,0-.72-.18,3.59,3.59,0,0,0-.93.3,5.75,5.75,0,0,0-.89.5c-.27.19-.48.34-.64.47l-1.09-1,5.77-6.15Z"/><path class="cls-3" d="M104.11,60.77a12.59,12.59,0,0,1-.16,2.79,11.22,11.22,0,0,1-.88,2.76,13.2,13.2,0,0,1-1.6,2.54A11.8,11.8,0,0,1,99.05,71a14.12,14.12,0,0,1-4.77,2.27,10.15,10.15,0,0,1-4.29.17,9.22,9.22,0,0,1-3.7-1.59,12.44,12.44,0,0,1-3-3.11,10.67,10.67,0,0,1-1.65-3.71,10.52,10.52,0,0,1-.15-4A10.39,10.39,0,0,1,83,57.09a12.05,12.05,0,0,1,3.37-3.43,13.37,13.37,0,0,1,4.25-2.11,8.32,8.32,0,0,1,3.59-.16,7.08,7.08,0,0,1,3,1.29A10.32,10.32,0,0,1,99.5,55.1l.76,1.09L88.93,64.06q2.38,3.43,4.95,4.31c1.72.59,3.53.21,5.46-1.13a6,6,0,0,0,2.23-2.83,9.83,9.83,0,0,0,.63-3.68ZM93.28,58.85c-.46-.67-1-1.34-1.53-2a8.62,8.62,0,0,0-1.55-1.48,3.19,3.19,0,0,0-1.61-.65,2.31,2.31,0,0,0-1.53.46,2.83,2.83,0,0,0-1.15,2.74,10.8,10.8,0,0,0,2,4.73Z"/><path class="cls-3" d="M119.71,41.43a4.21,4.21,0,0,1,.19,2.88A3.11,3.11,0,0,1,118,46.39a4.16,4.16,0,0,1-2.61.3,2.57,2.57,0,0,1-1.82-1.63,4.47,4.47,0,0,1-.34-1.06c0-.27-.09-.52-.13-.76a4.33,4.33,0,0,0-1.56,1.38,6.57,6.57,0,0,0-1.06,2.21l4.41,10.3a2.77,2.77,0,0,0,.67,1,1.57,1.57,0,0,0,1,.38,5.37,5.37,0,0,0,1.49-.23c.66-.17,1.12-.31,1.4-.41l.59,1.37L107.5,64.61l-.58-1.37.9-.51a4.92,4.92,0,0,0,.74-.53,1.54,1.54,0,0,0,.56-1,2.71,2.71,0,0,0-.26-1.22l-4.67-10.93a2.49,2.49,0,0,0-.84-1.07,3,3,0,0,0-1.13-.53,3.81,3.81,0,0,0-1,0,6.83,6.83,0,0,0-1.22.28l-.58-1.37,8.74-4.31.4.16,1.16,2.72.08,0a12,12,0,0,1,1.74-3.53,6.42,6.42,0,0,1,2.67-2.15,4.07,4.07,0,0,1,3.27-.12A4.16,4.16,0,0,1,119.71,41.43Z"/><path class="cls-3" d="M138.7,53.88,126.22,57l-.36-1.45c.34-.11.67-.22,1-.34a3.7,3.7,0,0,0,.82-.42,1.52,1.52,0,0,0,.7-.9,2.64,2.64,0,0,0-.06-1.23l-5.43-22a3.42,3.42,0,0,0-.66-1.32,2.36,2.36,0,0,0-1.06-.77,4.58,4.58,0,0,0-1.32-.2,6.88,6.88,0,0,0-1.49.07L118,27l9.86-3,.38.24,6.55,26.49a2.54,2.54,0,0,0,.55,1.13,1.84,1.84,0,0,0,1,.51,6.64,6.64,0,0,0,.92.1,4.56,4.56,0,0,0,1.08-.05Z"/><path class="cls-3" d="M161,33a4.6,4.6,0,0,0-1.73.83A4.07,4.07,0,0,0,158,35.65c-1,2.56-2,5.28-3,8.16s-2.18,6-3.44,9.35a27.69,27.69,0,0,1-2.12,4.54,14.62,14.62,0,0,1-2,2.67,6.87,6.87,0,0,1-1.84,1.32,5.48,5.48,0,0,1-1.91.51,4.46,4.46,0,0,1-3.2-.85A3.19,3.19,0,0,1,139,59a4.16,4.16,0,0,1,.05-1.07,3,3,0,0,1,.49-1.06,2.57,2.57,0,0,1,.95-.84,3.75,3.75,0,0,1,1.51-.43,3.56,3.56,0,0,1,2.23.64,12.08,12.08,0,0,1,2.32,2,18.66,18.66,0,0,0,1.51-2.14,9.88,9.88,0,0,0,1.25-2.85q-2.79-4.91-4.94-8.5t-4.81-8a3.87,3.87,0,0,0-1.48-1.42,4.4,4.4,0,0,0-1.86-.52l-.11-1.49,12.46-.92.11,1.48a5.92,5.92,0,0,0-1.57.43c-.59.23-.87.5-.85.8a1.29,1.29,0,0,0,.09.35,6,6,0,0,0,.26.54c.53.91,1.29,2.18,2.26,3.8l3.4,5.7c.69-2,1.29-3.69,1.77-5.12s1-2.83,1.42-4.22a3.31,3.31,0,0,0,.17-.82,2.54,2.54,0,0,0,0-.4.81.81,0,0,0-.4-.61,4,4,0,0,0-.88-.42,6.79,6.79,0,0,0-1-.23c-.31,0-.58-.07-.78-.08l-.11-1.49,8.41-.62Z"/><path class="cls-3" d="M201.87,38l-1.51-.4a10.68,10.68,0,0,0-1.12-3.74A5.55,5.55,0,0,0,197,31.21a8.27,8.27,0,0,0-1.6-.6c-.7-.21-1.28-.37-1.74-.49l-4.07-1.07-2.84,10.8,2.88.75a7.28,7.28,0,0,0,2,.27,3.89,3.89,0,0,0,1.87-.56A5.19,5.19,0,0,0,194.85,39,9.55,9.55,0,0,0,196,37.11l1.5.4-3.07,11.68-1.5-.39a11,11,0,0,0-.06-2.24,6.09,6.09,0,0,0-.46-2,3.44,3.44,0,0,0-1.29-1.38,7.24,7.24,0,0,0-2-.81l-2.88-.76-2.12,8.08a8.08,8.08,0,0,0-.34,2.05,2,2,0,0,0,.4,1.32,2.9,2.9,0,0,0,1.22.85,18.5,18.5,0,0,0,2.31.73l1.66.42a17.07,17.07,0,0,0,1.73.33,11.64,11.64,0,0,0,1.63.11,2.36,2.36,0,0,0,1.22-.29,16.8,16.8,0,0,0,2.91-2.39,22.27,22.27,0,0,0,2.34-2.56l1.44.38-2.82,8.58-26.28-6.91L172,50.8c.37.07.89.15,1.54.24a6.29,6.29,0,0,0,1.41.07,2,2,0,0,0,1.22-.53,2.68,2.68,0,0,0,.58-1.17l5.2-19.76a2.68,2.68,0,0,0,.09-1.23,2,2,0,0,0-.82-1.11,7.32,7.32,0,0,0-1.33-.82c-.58-.29-1-.5-1.33-.62l.4-1.54,24.84,6.53Z"/><path class="cls-3" d="M222.13,73.09,211.49,67l.74-1.29.87.38a2.44,2.44,0,0,0,.83.24,1.32,1.32,0,0,0,.85-.26,3.21,3.21,0,0,0,.79-1l4.75-8.28a5.3,5.3,0,0,0,.9-3.11,2.63,2.63,0,0,0-1.44-2,4.64,4.64,0,0,0-1.44-.55,6.15,6.15,0,0,0-1.56-.07,4.66,4.66,0,0,0-1.24.26c-.35.13-.65.24-.9.35l-5.45,9.51a3,3,0,0,0-.42,1.14,1.43,1.43,0,0,0,.22,1,3.52,3.52,0,0,0,.55.69,6.4,6.4,0,0,0,.73.66l-.74,1.29-10.77-6.18.74-1.29c.31.15.63.29.95.42a5.22,5.22,0,0,0,.87.27,1.46,1.46,0,0,0,1.13-.16,2.68,2.68,0,0,0,.82-.94l5.91-10.3a2.58,2.58,0,0,0,.33-1.24,3,3,0,0,0-.24-1.3,3.43,3.43,0,0,0-.61-.81,6.6,6.6,0,0,0-1-.81l.75-1.3,8.71,4.39.11.42-1.47,2.56.07,0,1.81-.37a13.87,13.87,0,0,1,1.89-.26,7.59,7.59,0,0,1,2.13.26,9.59,9.59,0,0,1,2.44,1,6.29,6.29,0,0,1,3.39,4.12,7.27,7.27,0,0,1-1.05,5.18l-5,8.67a2.8,2.8,0,0,0-.41,1.16,1.64,1.64,0,0,0,.37,1,8.39,8.39,0,0,0,.56.65,5.81,5.81,0,0,0,.85.72Z"/><path class="cls-3" d="M251.18,76.16l-3.27-3.08a6.24,6.24,0,0,1-.43,2.2,5.49,5.49,0,0,1-1.13,1.78,4.94,4.94,0,0,1-2.36,1.4,6.11,6.11,0,0,1-2.82.11,10.5,10.5,0,0,1-3-1.09,14.13,14.13,0,0,1-2.95-2.17L232.82,73a3,3,0,0,0-.8.06,1.33,1.33,0,0,0-.74.36,1.26,1.26,0,0,0-.34,1.4,7.14,7.14,0,0,0,1.62,2.06c.88.87,1.76,1.76,2.63,2.69s1.5,1.57,1.89,2a8.63,8.63,0,0,1,1.38,2,7.34,7.34,0,0,1,.72,2.18,5.76,5.76,0,0,1-.12,2.4,5.3,5.3,0,0,1-1.31,2.28A6,6,0,0,1,235.2,92a6.62,6.62,0,0,1-3.28.17A13,13,0,0,1,228,90.67a23.36,23.36,0,0,1-4.46-3.41,19.89,19.89,0,0,1-5-6.55,4.16,4.16,0,0,1,.65-4.77,3.09,3.09,0,0,1,2.91-.89,8.79,8.79,0,0,1,4.2,2.38l.17-.18a7.27,7.27,0,0,1-1-3.23,3.32,3.32,0,0,1,.91-2.5,2.48,2.48,0,0,1,1.3-.78,4.42,4.42,0,0,1,1.5,0,5.59,5.59,0,0,1,1.46.47c.52.24,1,.44,1.3.61l.15-.16a10,10,0,0,1-1.24-4.59,5.25,5.25,0,0,1,1.52-3.51,5.5,5.5,0,0,1,5.3-1.59,12.65,12.65,0,0,1,6.34,3.5,14.64,14.64,0,0,1,1.79,2c.52.7.9,1.25,1.15,1.65l5.76,5.43Zm-18.91,11.1a2.47,2.47,0,0,0,.16-3.27,20.2,20.2,0,0,0-1.65-1.77Q229.6,81,227.45,79a5.66,5.66,0,0,0-1.86.23,4,4,0,0,0-1.73,1.15,2.5,2.5,0,0,0-.56,1,3.41,3.41,0,0,0-.14,1.45,5.75,5.75,0,0,0,.52,1.76,7.93,7.93,0,0,0,1.7,2.06,6.77,6.77,0,0,0,3.62,2A3.82,3.82,0,0,0,232.27,87.26Zm9.28-14.84a8,8,0,0,0,2-3.27,2.51,2.51,0,0,0-.75-2.61,2.6,2.6,0,0,0-1.27-.68,2.71,2.71,0,0,0-1.45.14,4.94,4.94,0,0,0-1.46.86,15.41,15.41,0,0,0-1.4,1.3,7.6,7.6,0,0,0-1.93,3.2,2.39,2.39,0,0,0,.63,2.55,2.5,2.5,0,0,0,2.53.62A7,7,0,0,0,241.55,72.42Z"/><path class="cls-3" d="M246.05,99.6l-7.74-10.27,1.19-.9c.24.27.47.53.71.77a3.72,3.72,0,0,0,.7.59,1.55,1.55,0,0,0,1.1.29,2.69,2.69,0,0,0,1.11-.54l18.07-13.61a3.24,3.24,0,0,0,.95-1.11,2.39,2.39,0,0,0,.3-1.29,4.85,4.85,0,0,0-.33-1.29,6.71,6.71,0,0,0-.65-1.34l1.19-.9,6.61,7.9-.08.44-21.8,16.42a2.41,2.41,0,0,0-.81.95,1.72,1.72,0,0,0-.07,1.13,6.35,6.35,0,0,0,.26.89,4.57,4.57,0,0,0,.48,1Z"/><path class="cls-3" d="M253,111.67l-6.37-11.21,1.29-.74c.2.29.4.58.61.86a3.58,3.58,0,0,0,.61.66,1.64,1.64,0,0,0,1.06.45,2.43,2.43,0,0,0,1.19-.37l10.33-5.86a2.33,2.33,0,0,0,.93-.91,2.49,2.49,0,0,0,.35-1.13,3.82,3.82,0,0,0-.14-1.2,6.73,6.73,0,0,0-.42-1.33l1.3-.73,5.4,8.44L269,99l-14.09,8a2.32,2.32,0,0,0-.91.87,1.82,1.82,0,0,0-.21,1.13,5.61,5.61,0,0,0,.16.94,5.43,5.43,0,0,0,.32,1ZM275.7,95.34a3.47,3.47,0,0,1-2.89.27,4.22,4.22,0,0,1-2.8-4.94,3.45,3.45,0,0,1,1.71-2.34,3.49,3.49,0,0,1,2.9-.27,4.21,4.21,0,0,1,2.8,4.94A3.49,3.49,0,0,1,275.7,95.34Z"/><path class="cls-3" d="M256.13,121.39a14.19,14.19,0,0,1-.66-7L254,114.3l-.56-1.5,7-2.89.52,1.4a9.31,9.31,0,0,0-1.59,1.68,11,11,0,0,0-1.38,2.25,9.25,9.25,0,0,0-.69,2.59,5.79,5.79,0,0,0,.32,2.7,4.41,4.41,0,0,0,1.64,2.34,2.68,2.68,0,0,0,2.41.08,2.14,2.14,0,0,0,1.13-.85,3.7,3.7,0,0,0,.47-1.37,10.59,10.59,0,0,0,0-1.88c0-.66-.09-1.47-.16-2.43a24.74,24.74,0,0,1-.05-2.52,8.25,8.25,0,0,1,.53-2.38,5.79,5.79,0,0,1,1.29-2,5.9,5.9,0,0,1,2.31-1.45,5.52,5.52,0,0,1,5.21.65,10.51,10.51,0,0,1,3.86,5.33,14.3,14.3,0,0,1,.83,3.34,17.34,17.34,0,0,1,.14,2.75l1.28,0,.54,1.45-6.42,2.73-.5-1.34a8.38,8.38,0,0,0,2.59-3.57,5.56,5.56,0,0,0,.15-4,4.09,4.09,0,0,0-1.47-2.09,2.13,2.13,0,0,0-2-.21,2.35,2.35,0,0,0-1.64,2,17.17,17.17,0,0,0,0,3.9,12.12,12.12,0,0,1-.55,5.9,5.5,5.5,0,0,1-3.29,3,6,6,0,0,1-5.78-.66A11.67,11.67,0,0,1,256.13,121.39Z"/><path class="cls-3" d="M264.19,157.25l-1.62-12.17,1.48-.19c.06.26.14.58.23.94a2.27,2.27,0,0,0,.31.78,1.26,1.26,0,0,0,.73.51,3.48,3.48,0,0,0,1.27,0l9.47-1.26a5.19,5.19,0,0,0,3-1.19,2.65,2.65,0,0,0,.73-2.35,4.72,4.72,0,0,0-.44-1.48,5.52,5.52,0,0,0-.89-1.27,4.66,4.66,0,0,0-1-.83c-.32-.2-.59-.37-.83-.5l-10.87,1.44a3.27,3.27,0,0,0-1.16.34,1.5,1.5,0,0,0-.62.78,3.18,3.18,0,0,0-.22.84,7.06,7.06,0,0,0-.08,1l-1.47.2-1.64-12.35,1.48-.19c.07.35.15.69.24,1a3.59,3.59,0,0,0,.32.86,1.56,1.56,0,0,0,.81.8,2.73,2.73,0,0,0,1.24.07l22.56-3a3.58,3.58,0,0,0,1.33-.48,2.35,2.35,0,0,0,1-1,3.33,3.33,0,0,0,.26-1.23,9.42,9.42,0,0,0,0-1.4l1.48-.19,1.86,10-.28.35L279,137.94V138l1.43,1.21a13.32,13.32,0,0,1,1.32,1.36,7.57,7.57,0,0,1,1.09,1.84,9.55,9.55,0,0,1,.68,2.55,6.24,6.24,0,0,1-1.23,5.17,7.29,7.29,0,0,1-4.74,2.31l-9.91,1.31a2.68,2.68,0,0,0-1.16.38,1.59,1.59,0,0,0-.6.92,5.09,5.09,0,0,0-.18.85,8.89,8.89,0,0,0-.06,1.12Z"/><path class="cls-1" d="M60.76,211.43a5.06,5.06,0,0,1-2.56.51,4.94,4.94,0,0,1-2.27-.81,7.78,7.78,0,0,1-2-1.89,14.75,14.75,0,0,1-1.61-2.78l-.6-1.29-4.47,2a1.71,1.71,0,0,0-.63.47,1.21,1.21,0,0,0-.21.8,6,6,0,0,0,.14.81c.09.37.18.67.26.91l-.87.4L42,202l.88-.4.49.81a3.23,3.23,0,0,0,.49.68,1.17,1.17,0,0,0,.7.38,1.58,1.58,0,0,0,.78-.19l11.21-5.13a1.86,1.86,0,0,0,.62-.44,1.23,1.23,0,0,0,.21-.8,5.2,5.2,0,0,0-.15-.95c-.08-.38-.16-.66-.21-.84l.87-.4,4,8.77a9.44,9.44,0,0,1,1.12,5A3.63,3.63,0,0,1,60.76,211.43Zm-2.57-4.1a4.54,4.54,0,0,0,2.33-1.94,3.5,3.5,0,0,0-.31-3l-.42-.93-7,3.19.22.47a4.51,4.51,0,0,0,2.12,2.41A3.64,3.64,0,0,0,58.19,207.33Z"/><path class="cls-1" d="M65.28,224.17a2.56,2.56,0,0,1-1.7.39,1.85,1.85,0,0,1-1.42-.91,2.51,2.51,0,0,1-.43-1.52,1.56,1.56,0,0,1,.79-1.25,3,3,0,0,1,.6-.3l.44-.15a2.62,2.62,0,0,0-1-.8,4,4,0,0,0-1.42-.41l-5.7,3.63a1.59,1.59,0,0,0-.53.49.9.9,0,0,0-.13.63,3,3,0,0,0,.28.86,8.08,8.08,0,0,0,.38.8l-.76.48-4.42-7,.76-.48c.12.16.25.33.39.49a3.57,3.57,0,0,0,.39.39.89.89,0,0,0,.64.23,1.62,1.62,0,0,0,.7-.27l6-3.85a1.46,1.46,0,0,0,.56-.6,1.78,1.78,0,0,0,.2-.73,2.36,2.36,0,0,0-.09-.6,3.71,3.71,0,0,0-.29-.7l.76-.48,3.42,4.78-.05.25-1.51,1,0,0a7.37,7.37,0,0,1,2.27.7,3.82,3.82,0,0,1,1.54,1.38,2.45,2.45,0,0,1,.39,1.93A2.52,2.52,0,0,1,65.28,224.17Z"/><path class="cls-1" d="M74.49,234.15a5.7,5.7,0,0,1-.67,2.36,6.61,6.61,0,0,1-1.66,2,6.78,6.78,0,0,1-2.29,1.29,5.55,5.55,0,0,1-2.48.27,6.72,6.72,0,0,1-2.57-.88,9,9,0,0,1-2.36-2,8.6,8.6,0,0,1-1.44-2.4,6.57,6.57,0,0,1-.43-2.54,5.75,5.75,0,0,1,.61-2.44,6.54,6.54,0,0,1,1.74-2.16,6.93,6.93,0,0,1,2.32-1.32,5.94,5.94,0,0,1,2.49-.22,6.28,6.28,0,0,1,2.46.87,8.59,8.59,0,0,1,2.28,2,8.88,8.88,0,0,1,1.58,2.63A6.61,6.61,0,0,1,74.49,234.15Zm-8.58,3a7.17,7.17,0,0,0,1.55-.77,18.22,18.22,0,0,0,1.84-1.36,17.27,17.27,0,0,0,1.43-1.36,7.5,7.5,0,0,0,1.11-1.4,2.93,2.93,0,0,0,.41-1.41,2,2,0,0,0-.51-1.3,2,2,0,0,0-1.26-.77A3.17,3.17,0,0,0,69,229a6.92,6.92,0,0,0-1.49.78A18,18,0,0,0,65.94,231c-.68.57-1.23,1.07-1.65,1.49a7.33,7.33,0,0,0-1.09,1.45,2.79,2.79,0,0,0-.4,1.4,2,2,0,0,0,.52,1.31,1.94,1.94,0,0,0,1.13.71A2.7,2.7,0,0,0,65.91,237.19Z"/><path class="cls-1" d="M87.08,246l-2-1.83a3.79,3.79,0,0,1-.23,1.33,3.56,3.56,0,0,1-.67,1.08,3,3,0,0,1-1.41.87,3.63,3.63,0,0,1-1.7.09,6.21,6.21,0,0,1-1.81-.63,8.4,8.4,0,0,1-1.8-1.28L76,244.28a1.44,1.44,0,0,0-.48,0,.77.77,0,0,0-.45.22.79.79,0,0,0-.19.85,4.42,4.42,0,0,0,1,1.23c.54.51,1.07,1,1.61,1.59s.92.94,1.15,1.17a4.75,4.75,0,0,1,.85,1.17,4.28,4.28,0,0,1,.46,1.31,3.53,3.53,0,0,1-.06,1.44,3.07,3.07,0,0,1-.77,1.39,3.64,3.64,0,0,1-1.52,1,4,4,0,0,1-2,.12,7.61,7.61,0,0,1-2.38-.85,13.91,13.91,0,0,1-2.72-2,12,12,0,0,1-3.1-3.91,2.51,2.51,0,0,1,.35-2.88,1.88,1.88,0,0,1,1.75-.57,5.37,5.37,0,0,1,2.55,1.4l.1-.1a4.47,4.47,0,0,1-.61-1.95,2,2,0,0,1,.53-1.51,1.43,1.43,0,0,1,.77-.48,2.76,2.76,0,0,1,.91,0,3.37,3.37,0,0,1,.88.27l.79.36.09-.1a6,6,0,0,1-.79-2.76,3.17,3.17,0,0,1,.89-2.12,3.29,3.29,0,0,1,3.18-1,7.59,7.59,0,0,1,3.86,2,9.38,9.38,0,0,1,1.09,1.2,11.68,11.68,0,0,1,.71,1L88,245Zm-11.31,6.86a1.66,1.66,0,0,0,.39-.77,1.77,1.77,0,0,0-.32-1.2,10.47,10.47,0,0,0-1-1.06c-.48-.46-1.16-1.1-2-1.89a3.34,3.34,0,0,0-1.12.16,2.46,2.46,0,0,0-1,.7,1.58,1.58,0,0,0-.33.62,2.06,2.06,0,0,0-.07.87,3.35,3.35,0,0,0,.33,1.06,4.81,4.81,0,0,0,1,1.23,4.05,4.05,0,0,0,2.21,1.18A2.31,2.31,0,0,0,75.77,252.86Zm5.47-9a4.73,4.73,0,0,0,1.2-2,1.52,1.52,0,0,0-.47-1.57,1.62,1.62,0,0,0-.78-.4,1.66,1.66,0,0,0-.87.1,3.13,3.13,0,0,0-.87.53,7.81,7.81,0,0,0-.83.8,4.46,4.46,0,0,0-1.14,1.94,1.45,1.45,0,0,0,.4,1.54,1.53,1.53,0,0,0,1.53.35A4.24,4.24,0,0,0,81.24,243.83Z"/><path class="cls-1" d="M97.23,254.26a2.53,2.53,0,0,1-1.42,1,1.88,1.88,0,0,1-1.66-.31,2.52,2.52,0,0,1-1-1.25,1.56,1.56,0,0,1,.27-1.45,3.13,3.13,0,0,1,.43-.51l.35-.3a2.46,2.46,0,0,0-1.19-.37,3.69,3.69,0,0,0-1.47.15l-3.92,5.51a1.64,1.64,0,0,0-.31.66.94.94,0,0,0,.12.62,3.2,3.2,0,0,0,.58.7c.3.28.52.48.66.59l-.52.74-6.71-4.78.52-.73.54.3a3.41,3.41,0,0,0,.51.22.87.87,0,0,0,.68,0,1.72,1.72,0,0,0,.55-.51l4.16-5.84a1.62,1.62,0,0,0,.29-.77,1.85,1.85,0,0,0-.09-.75,2.13,2.13,0,0,0-.31-.53,5.35,5.35,0,0,0-.53-.54l.52-.73,5,3.14,0,.26-1,1.46,0,0a7.54,7.54,0,0,1,2.36-.21,3.92,3.92,0,0,1,2,.7,2.4,2.4,0,0,1,.59,3.54Z"/><path class="cls-1" d="M106.36,267.25a7.19,7.19,0,0,1-1.55.67,6.19,6.19,0,0,1-1.72.28,8.18,8.18,0,0,1-1.81-.17,7.3,7.3,0,0,1-1.82-.72,8.63,8.63,0,0,1-2.52-1.95,6.24,6.24,0,0,1-1.26-2.26,5.68,5.68,0,0,1-.14-2.43,7.41,7.41,0,0,1,.85-2.47,6.21,6.21,0,0,1,6.21-3.32,7.29,7.29,0,0,1,2.77.89,8.16,8.16,0,0,1,2.29,1.71,5,5,0,0,1,1.06,1.9,4.1,4.1,0,0,1,.11,1.94,6.13,6.13,0,0,1-.67,1.91l-.38.7-7.32-4a6.44,6.44,0,0,0-1,3.84,4.09,4.09,0,0,0,4.23,3.07,5.85,5.85,0,0,0,2.15-.67Zm-1.91-6.35a13.36,13.36,0,0,0,.66-1.37,5.29,5.29,0,0,0,.38-1.24,2,2,0,0,0-.09-1,1.36,1.36,0,0,0-.67-.69,1.7,1.7,0,0,0-1.79.12,6.6,6.6,0,0,0-2,2.38Z"/><path class="cls-1" d="M112.44,273.33a7.6,7.6,0,0,1-2-1.18,7.29,7.29,0,0,1-1.37-1.34l-.65.65-.89-.35,1.53-4.34.83.33a6.06,6.06,0,0,0,.12,1.39,6.72,6.72,0,0,0,.46,1.52,5.4,5.4,0,0,0,.89,1.36,3.51,3.51,0,0,0,1.34.94,2.67,2.67,0,0,0,1.72.2,1.64,1.64,0,0,0,1-1.05,1.34,1.34,0,0,0,.07-.85,2.17,2.17,0,0,0-.43-.76,6.24,6.24,0,0,0-.83-.78l-1.16-.9a14.58,14.58,0,0,1-1.15-1A5,5,0,0,1,111,266a3.5,3.5,0,0,1-.12-3,3.32,3.32,0,0,1,2.38-2.08,6.34,6.34,0,0,1,4,.4,9.09,9.09,0,0,1,1.84,1,10.51,10.51,0,0,1,1.29,1l.51-.58.87.34-1.35,4-.81-.31a5.06,5.06,0,0,0-.56-2.6,3.39,3.39,0,0,0-1.76-1.69,2.52,2.52,0,0,0-1.53-.18,1.33,1.33,0,0,0-.91.82,1.45,1.45,0,0,0,.25,1.56,11,11,0,0,0,1.77,1.54,7.15,7.15,0,0,1,2.43,2.62,3.27,3.27,0,0,1,0,2.69,3.59,3.59,0,0,1-2.61,2.33A7.07,7.07,0,0,1,112.44,273.33Z"/><path class="cls-1" d="M126,277.77a7.74,7.74,0,0,1-2.17-.93,7.9,7.9,0,0,1-1.52-1.17l-.57.71-.93-.24,1-4.49.87.23a6.41,6.41,0,0,0,.28,1.37,7.07,7.07,0,0,0,.63,1.46,5.57,5.57,0,0,0,1,1.24,3.38,3.38,0,0,0,1.44.78,2.65,2.65,0,0,0,1.73,0,1.57,1.57,0,0,0,.87-1.16,1.23,1.23,0,0,0,0-.85,2,2,0,0,0-.51-.71,6.49,6.49,0,0,0-.91-.67l-1.26-.77q-.73-.45-1.26-.84a5.08,5.08,0,0,1-1-1.09,3.68,3.68,0,0,1-.56-1.35,3.58,3.58,0,0,1,.09-1.64,3.34,3.34,0,0,1,2.13-2.34,6.34,6.34,0,0,1,4-.06,8.71,8.71,0,0,1,1.94.75,10.74,10.74,0,0,1,1.4.89l.43-.64.91.24-.89,4.11-.83-.22a5.17,5.17,0,0,0-.86-2.52,3.34,3.34,0,0,0-1.94-1.47,2.51,2.51,0,0,0-1.54,0,1.28,1.28,0,0,0-.81.92,1.41,1.41,0,0,0,.42,1.51,10.26,10.26,0,0,0,2,1.33,7.16,7.16,0,0,1,2.71,2.32,3.29,3.29,0,0,1,.35,2.67,3.58,3.58,0,0,1-2.33,2.62A7,7,0,0,1,126,277.77Z"/><path class="cls-1" d="M161.58,274.75l-.68.05a6.92,6.92,0,0,0-.75.16,1,1,0,0,0-.69.49,1.87,1.87,0,0,0-.2.77l-.11,2c0,.41,0,.74-.05,1s0,.56,0,.93a14.41,14.41,0,0,1-3.71,1.19,17,17,0,0,1-4.45.42,10.89,10.89,0,0,1-3.52-.77,8.47,8.47,0,0,1-2.83-1.89,8,8,0,0,1-1.81-2.95,9.88,9.88,0,0,1-.51-3.93,10.11,10.11,0,0,1,.88-3.74,8.34,8.34,0,0,1,2.11-2.88,8.48,8.48,0,0,1,3.16-1.76,11.18,11.18,0,0,1,4-.46,9.39,9.39,0,0,1,2.73.52,12.32,12.32,0,0,1,2.05.9l.8-.64,1.07.06-.24,6.37-1.08-.06a11.48,11.48,0,0,0-2-4.38,4.32,4.32,0,0,0-3.22-1.57,4.07,4.07,0,0,0-3.75,1.87,10.78,10.78,0,0,0-1.59,5.63,12.13,12.13,0,0,0,.93,6.1,4,4,0,0,0,3.46,2.37,5.46,5.46,0,0,0,1.94-.22,4.25,4.25,0,0,0,1.35-.69l.19-3.54a1.69,1.69,0,0,0-.12-.75,1.3,1.3,0,0,0-.61-.56,3.8,3.8,0,0,0-.91-.33,9.14,9.14,0,0,0-.91-.21l0-1,9.06.49Z"/><path class="cls-1" d="M179.71,279.57l-5.8,1-.2-.15-.18-1.6h-.07l-.73.83a4.77,4.77,0,0,1-.88.76,6.69,6.69,0,0,1-1.12.62,6.27,6.27,0,0,1-1.6.33,3.57,3.57,0,0,1-2.95-.8,4.61,4.61,0,0,1-1.34-3l-.6-5.51a1.59,1.59,0,0,0-.27-.76,1.83,1.83,0,0,0-.55-.48,1.51,1.51,0,0,0-.66-.19,6.11,6.11,0,0,0-.72,0l-.09-.89,5.87-1,.16.17.9,8.14a3,3,0,0,0,.68,1.8,1.63,1.63,0,0,0,1.4.46,2.88,2.88,0,0,0,1.51-.63,3.12,3.12,0,0,0,.9-1.08l-.73-6.59a1.7,1.7,0,0,0-.24-.73,1.36,1.36,0,0,0-.52-.49,1.62,1.62,0,0,0-.65-.13l-.85,0-.1-.89,5.91-1,.21.17,1,9.45a1.54,1.54,0,0,0,.25.71,1.59,1.59,0,0,0,.56.45,1.39,1.39,0,0,0,.62.13,6.06,6.06,0,0,0,.74,0Z"/><path class="cls-1" d="M195.86,275.49a9.68,9.68,0,0,1-1.13.73,5.71,5.71,0,0,1-1.46.58,4.24,4.24,0,0,1-2.27.13,2.27,2.27,0,0,1-1.26-1l-.07,0a8.78,8.78,0,0,1-.6.9,4.92,4.92,0,0,1-.68.69,7,7,0,0,1-1,.68,6.81,6.81,0,0,1-1.42.5,3.7,3.7,0,0,1-2.57-.2,2.77,2.77,0,0,1-1.54-1.92,3.56,3.56,0,0,1-.13-1.37,3.07,3.07,0,0,1,.36-1.12,3.23,3.23,0,0,1,.67-.85,8.79,8.79,0,0,1,.91-.73c.65-.45,1.44-.94,2.37-1.49a15.57,15.57,0,0,0,2-1.32l-.3-1.15a7.29,7.29,0,0,0-.25-.77,2.42,2.42,0,0,0-.41-.77,1.6,1.6,0,0,0-.69-.51,1.64,1.64,0,0,0-1,0,2.34,2.34,0,0,0-.84.38,3.18,3.18,0,0,0-.49.45,4.24,4.24,0,0,0,.39.67,3,3,0,0,1,.41.9,1.48,1.48,0,0,1,0,.53,1.13,1.13,0,0,1-.18.57,2.38,2.38,0,0,1-.52.53,3.37,3.37,0,0,1-1,.4,2.26,2.26,0,0,1-1.65-.09,1.76,1.76,0,0,1-.84-1.13,1.69,1.69,0,0,1,.23-1.33,4.3,4.3,0,0,1,1.06-1.21,7.6,7.6,0,0,1,1.59-1,9.67,9.67,0,0,1,1.76-.67,14.77,14.77,0,0,1,2.16-.41,4.89,4.89,0,0,1,1.88.12,3.13,3.13,0,0,1,1.49.9,4.45,4.45,0,0,1,1,2c.23.9.49,2,.77,3.21s.48,2.05.58,2.44a1.91,1.91,0,0,0,.38.81,1,1,0,0,0,.61.33,1.66,1.66,0,0,0,.67-.05l.8-.18Zm-7.52-4.69c-.4.27-.8.56-1.19.87a5.25,5.25,0,0,0-.92.89,2.41,2.41,0,0,0-.47,1,2.83,2.83,0,0,0,.06,1.28,1.89,1.89,0,0,0,.78,1.25,1.48,1.48,0,0,0,1.15.14,2,2,0,0,0,1-.55,3.33,3.33,0,0,0,.57-.85Z"/><path class="cls-1" d="M205.81,261.14a2.43,2.43,0,0,1,.07,1.74,1.88,1.88,0,0,1-1.15,1.23,2.58,2.58,0,0,1-1.58.14,1.57,1.57,0,0,1-1.08-1,2.91,2.91,0,0,1-.18-.64c0-.16,0-.32-.07-.46a2.74,2.74,0,0,0-1,.81,4,4,0,0,0-.67,1.31l2.5,6.29a1.53,1.53,0,0,0,.39.61,1,1,0,0,0,.58.24,3.17,3.17,0,0,0,.91-.11,8,8,0,0,0,.85-.23l.34.84-7.66,3-.33-.83c.18-.1.37-.19.55-.3a2.62,2.62,0,0,0,.46-.3,1,1,0,0,0,.35-.59,1.66,1.66,0,0,0-.14-.74l-2.65-6.66a1.44,1.44,0,0,0-.49-.66,1.77,1.77,0,0,0-.67-.34,2.47,2.47,0,0,0-.62,0,3.6,3.6,0,0,0-.74.15l-.33-.83,5.34-2.47.24.1.66,1.66,0,0a7.45,7.45,0,0,1,1.11-2.1,3.93,3.93,0,0,1,1.64-1.26,2.41,2.41,0,0,1,3.29,1.42Z"/><path class="cls-1" d="M223.74,262.43a8.76,8.76,0,0,1-.91,1,6.4,6.4,0,0,1-1.27.93,4.28,4.28,0,0,1-2.16.68,2.22,2.22,0,0,1-1.48-.66l-.06,0a7.8,7.8,0,0,1-.36,1,5.51,5.51,0,0,1-.49.85,6.28,6.28,0,0,1-.78.89A5.89,5.89,0,0,1,215,268a3.71,3.71,0,0,1-2.54.44,2.78,2.78,0,0,1-2-1.47,3.69,3.69,0,0,1-.46-1.31,3.07,3.07,0,0,1,.07-1.17,3.35,3.35,0,0,1,.43-1,10.77,10.77,0,0,1,.7-.93c.52-.6,1.16-1.27,1.93-2a15.69,15.69,0,0,0,1.61-1.78l-.57-1c-.1-.17-.25-.4-.44-.68a2.71,2.71,0,0,0-.59-.65,1.71,1.71,0,0,0-.8-.32,1.57,1.57,0,0,0-1,.24,2.16,2.16,0,0,0-.72.57,3.22,3.22,0,0,0-.36.56,5.16,5.16,0,0,0,.54.55,3,3,0,0,1,.63.77,1.64,1.64,0,0,1,.15.51,1.19,1.19,0,0,1,0,.6,2.18,2.18,0,0,1-.37.64,3.44,3.44,0,0,1-.88.64,2.25,2.25,0,0,1-1.62.32,1.76,1.76,0,0,1-1.21-2.23,4.49,4.49,0,0,1,.74-1.44,7.66,7.66,0,0,1,1.28-1.36,9.77,9.77,0,0,1,1.54-1.09,16.54,16.54,0,0,1,2-.93,5.2,5.2,0,0,1,1.86-.36,3.17,3.17,0,0,1,1.66.51,4.39,4.39,0,0,1,1.43,1.65c.45.82,1,1.79,1.55,2.92s1,1.88,1.16,2.23a1.91,1.91,0,0,0,.57.68,1.06,1.06,0,0,0,.68.18,2,2,0,0,0,.63-.22c.27-.13.51-.26.73-.38Zm-8.45-2.67c-.32.36-.64.74-.94,1.13a5.15,5.15,0,0,0-.66,1.1,2.36,2.36,0,0,0-.21,1.12,2.93,2.93,0,0,0,.39,1.23,1.89,1.89,0,0,0,1.06,1,1.5,1.5,0,0,0,1.15-.14,2,2,0,0,0,.85-.79,3.29,3.29,0,0,0,.34-1Z"/><path class="cls-1" d="M239,251.5l-5.9,4.47-.55-.72.42-.39a1.94,1.94,0,0,0,.33-.4.78.78,0,0,0,.05-.54,2,2,0,0,0-.37-.68l-3.48-4.59a3.12,3.12,0,0,0-1.51-1.23,1.59,1.59,0,0,0-1.47.32,2.89,2.89,0,0,0-.64.67,3.53,3.53,0,0,0-.41.85,2.77,2.77,0,0,0-.15.75c0,.22,0,.42,0,.58l4,5.27a1.75,1.75,0,0,0,.53.5.81.81,0,0,0,.59.1,2,2,0,0,0,.51-.14,3.32,3.32,0,0,0,.54-.25l.54.72-6,4.52-.54-.72c.15-.13.3-.28.45-.43a3.9,3.9,0,0,0,.36-.41,1,1,0,0,0,.18-.66,1.7,1.7,0,0,0-.33-.68l-4.33-5.72a1.56,1.56,0,0,0-.61-.48,1.91,1.91,0,0,0-.77-.17,1.88,1.88,0,0,0-.6.15,3.26,3.26,0,0,0-.67.34l-.55-.72,4.49-3.8.26,0,1.08,1.42,0,0c.06-.3.13-.67.22-1.09a8.67,8.67,0,0,1,.3-1.11,4.66,4.66,0,0,1,.65-1.13,6,6,0,0,1,1.13-1.12,3.8,3.8,0,0,1,3.09-.9,4.37,4.37,0,0,1,2.62,1.8l3.64,4.81a1.77,1.77,0,0,0,.55.5,1,1,0,0,0,.66,0l.5-.16a4.18,4.18,0,0,0,.6-.3Z"/><path class="cls-1" d="M246.92,242.91a17,17,0,0,1-.78,1.62,7.45,7.45,0,0,1-1.38,1.73,3.9,3.9,0,0,1-2.7,1.31,3.66,3.66,0,0,1-2.53-1.27l-5.25-5.43-1.59,1.54-.93-1,1.62-1.58-2.59-2.68,2.87-2.78,2.59,2.68,2.49-2.4.93,1L237.2,238l4.69,4.84a3.86,3.86,0,0,0,1.71,1.19,1.56,1.56,0,0,0,1.45-.57c.16-.15.37-.38.63-.68a4.73,4.73,0,0,0,.52-.65Z"/><path class="cls-1" d="M255,229.82a7.92,7.92,0,0,1,.35,1.65,6.37,6.37,0,0,1-.07,1.74,7.83,7.83,0,0,1-.52,1.74,7.2,7.2,0,0,1-1.06,1.64,8.62,8.62,0,0,1-2.41,2.09,6.15,6.15,0,0,1-2.47.79,5.56,5.56,0,0,1-2.41-.33,7.63,7.63,0,0,1-2.25-1.32,6.45,6.45,0,0,1-1.55-1.9,6.1,6.1,0,0,1-.48-4.85,7.4,7.4,0,0,1,1.41-2.54,8,8,0,0,1,2.13-1.9,4.94,4.94,0,0,1,2.06-.67,4.24,4.24,0,0,1,1.93.27,6.15,6.15,0,0,1,1.74,1l.62.52-5.33,6.39a6.39,6.39,0,0,0,3.58,1.71,3.55,3.55,0,0,0,3-1.53,3.61,3.61,0,0,0,.84-2,5.9,5.9,0,0,0-.22-2.24Zm-6.61.62c-.38-.31-.78-.62-1.21-.91a5,5,0,0,0-1.14-.61,2,2,0,0,0-1-.12,1.38,1.38,0,0,0-.81.51,1.7,1.7,0,0,0-.23,1.78,6.44,6.44,0,0,0,1.94,2.42Z"/><path class="cls-1" d="M263.37,216.86a7.68,7.68,0,0,1,.56,1.59,6.34,6.34,0,0,1,.15,1.74,7.28,7.28,0,0,1-.3,1.79,6.71,6.71,0,0,1-.84,1.77,8.71,8.71,0,0,1-2.12,2.37,6.19,6.19,0,0,1-2.35,1.1,5.54,5.54,0,0,1-2.43,0,7.61,7.61,0,0,1-2.4-1,6.39,6.39,0,0,1-2.81-3.89,6.33,6.33,0,0,1-.06-2.54,7.3,7.3,0,0,1,1.07-2.7,8.28,8.28,0,0,1,1.87-2.16,5.21,5.21,0,0,1,2-.93,4.24,4.24,0,0,1,1.94,0,6.12,6.12,0,0,1,1.86.81l.68.42-4.47,7a6.46,6.46,0,0,0,3.76,1.24,3.6,3.6,0,0,0,2.77-1.9,3.52,3.52,0,0,0,.58-2.1,5.73,5.73,0,0,0-.51-2.19Zm-6.47,1.46q-.63-.39-1.32-.75a4.78,4.78,0,0,0-1.21-.46,2,2,0,0,0-1.05,0,1.41,1.41,0,0,0-.74.62,1.69,1.69,0,0,0,0,1.79,6.5,6.5,0,0,0,2.24,2.15Z"/><path class="cls-1" d="M273.58,201.49l-2.19,5.67-.24.1-1-.48-.06.07a5.44,5.44,0,0,1,.36,2,4.75,4.75,0,0,1-.42,2.08,5.19,5.19,0,0,1-3.38,3,7,7,0,0,1-5-.51,6.18,6.18,0,0,1-3.3-3.49,5.88,5.88,0,0,1,.11-4.74,7.33,7.33,0,0,1,1-1.63,5.56,5.56,0,0,1,1.07-1.06l-3.66-1.67a2,2,0,0,0-.86-.19,1.49,1.49,0,0,0-.77.19,2.37,2.37,0,0,0-.75.71,10,10,0,0,0-.63,1l-.81-.37,2.47-6.19.26-.09,14.68,6.7a1.92,1.92,0,0,0,.78.19,1.14,1.14,0,0,0,.67-.24,2.22,2.22,0,0,0,.49-.61c.18-.28.31-.52.41-.71Zm-4.6,4.8-6.33-2.89a6.36,6.36,0,0,0-.67,0,2.63,2.63,0,0,0-.77.12,2.12,2.12,0,0,0-.68.4,2,2,0,0,0-.57.77,2.3,2.3,0,0,0,.43,2.41,8.09,8.09,0,0,0,3.25,2.34,10.39,10.39,0,0,0,1.69.62,5,5,0,0,0,1.52.15,3,3,0,0,0,1.31-.41,2.37,2.37,0,0,0,.89-1.07,2.41,2.41,0,0,0,.26-1.25A3.64,3.64,0,0,0,269,206.29Z"/><circle class="cls-4" cx="157.84" cy="157.84" r="90.19"/><circle class="cls-1" cx="157.84" cy="157.84" r="83.46"/><path class="cls-3" d="M114.41,138.72c30.71,24.06,40.78,42.71,40.78,42.71V112.06C152.2,131.58,141.19,147.23,114.41,138.72Z"/><circle class="cls-3" cx="134.61" cy="125.9" r="7.26"/><path class="cls-2" d="M201.63,138.72c-30.71,24.06-40.78,42.71-40.78,42.71V112.06C163.84,131.58,174.85,147.23,201.63,138.72Z"/><circle class="cls-2" cx="181.43" cy="125.9" r="7.26"/><path class="cls-3" d="M80.62,177.14l7.9,1.21,18.23,21.19s21.18-.11,41.95,7.52c-.11.44-40.15-4.29-44.65-2.86C104.05,204.31,80.62,177.14,80.62,177.14Z"/><path class="cls-3" d="M235.07,177.14l-7.9,1.21-18.24,21.19s-21.17-.11-42,7.52c.11.44,40.15-4.29,44.66-2.86C211.64,204.31,235.07,177.14,235.07,177.14Z"/><path class="cls-2" d="M188.61,187.79a148.47,148.47,0,0,1,16.78-2.86c2.9-.33,5.82-.6,8.73-.79l5.76-8.11c-4.28.47-8.56,1-12.81,1.76-5.8,1-11.59,2.18-17.27,3.74a124.27,124.27,0,0,0-16.72,5.7,68.47,68.47,0,0,0-15.26,8.87,68.58,68.58,0,0,1,15.11-9.21,122.47,122.47,0,0,1,16.67-6.07c5.67-1.7,11.46-3,17.27-4.14,4.68-.89,9.38-1.61,14.11-2.19l6.55-9.22c-38.59.59-69.47,25.34-69.62,25.2-29.27-23-69.76-25.2-69.76-25.2l6.37,9.2q7.17.87,14.25,2.21c5.81,1.14,11.59,2.44,17.27,4.14a122.47,122.47,0,0,1,16.67,6.07,68.58,68.58,0,0,1,15.11,9.21,68.47,68.47,0,0,0-15.26-8.87,122.84,122.84,0,0,0-16.72-5.69c-5.68-1.57-11.47-2.75-17.27-3.75-4.31-.73-8.64-1.31-13-1.77l5.62,8.11q4.53.28,9,.8A148.47,148.47,0,0,1,127,187.79a102.09,102.09,0,0,1,16.21,5.13,59.53,59.53,0,0,1,14.58,8.63,59.66,59.66,0,0,1,14.57-8.63A102.53,102.53,0,0,1,188.61,187.79Z"/><path class="cls-2" d="M205.5,186.05a147.63,147.63,0,0,0-16.73,2.47,102.64,102.64,0,0,0-16.23,4.74,60,60,0,0,0-14.72,8.29,60,60,0,0,0-14.72-8.29,102.64,102.64,0,0,0-16.23-4.74,147.63,147.63,0,0,0-16.73-2.47c-2.66-.25-5.33-.43-8-.56l5.67,8.18c23.3-1.6,50,14.42,50,14.57,13.47-12.67,49.3-14.28,49.3-14.28l6-8.45C210.6,185.64,208.05,185.81,205.5,186.05Z"/><polygon class="cls-2" points="160.44 104 161.2 108.65 157.04 106.43 152.85 108.6 153.68 103.95 150.32 100.64 155 99.99 157.11 95.77 159.17 100.02 163.84 100.73 160.44 104"/></svg>